<svg width="96" height="20" viewBox="0 0 96 20" fill="none" xmlns="http://www.w3.org/2000/svg">
<path d="M35.8979 4.47266H30.5853C30.4094 4.47256 30.2393 4.52606 30.1056 4.62351C29.9718 4.72096 29.8833 4.85595 29.8559 5.00417L27.7072 16.6266C27.6973 16.6805 27.7013 16.7356 27.7188 16.7881C27.7362 16.8406 27.7669 16.8893 27.8085 16.9307C27.8501 16.9722 27.9018 17.0054 27.96 17.0282C28.0181 17.051 28.0814 17.0627 28.1453 17.0627H30.6816C30.8576 17.0627 31.0278 17.0091 31.1616 16.9115C31.2953 16.814 31.3838 16.6788 31.4111 16.5305L31.9906 13.3957C32.0178 13.2475 32.1061 13.1124 32.2397 13.0149C32.3733 12.9173 32.5433 12.8636 32.7192 12.8636H34.401C37.9005 12.8636 39.9203 11.4188 40.4477 8.55577C40.6854 7.3032 40.4578 6.31904 39.7703 5.62979C39.0153 4.87295 37.676 4.47266 35.8979 4.47266ZM36.5108 8.71748C36.2203 10.3438 34.7638 10.3438 33.3554 10.3438H32.5537L33.1162 7.30651C33.1326 7.21765 33.1857 7.13672 33.2659 7.07829C33.3461 7.01985 33.4481 6.98774 33.5535 6.98774H33.9209C34.8803 6.98774 35.7853 6.98774 36.2529 7.45431C36.5318 7.73265 36.6173 8.1462 36.5108 8.71748ZM51.7783 8.66512H49.2342C49.1288 8.66513 49.0268 8.69723 48.9466 8.75567C48.8665 8.81411 48.8134 8.89504 48.7969 8.9839L48.6843 9.59097L48.5064 9.37094C47.9556 8.68898 46.7275 8.461 45.5017 8.461C42.6904 8.461 40.2892 10.2776 39.8216 12.8258C39.5785 14.0969 39.9241 15.3124 40.7693 16.16C41.5446 16.9394 42.6539 17.2641 43.9737 17.2641C46.2388 17.2641 47.495 16.0215 47.495 16.0215L47.3815 16.6246C47.3714 16.6785 47.3752 16.7337 47.3924 16.7862C47.4097 16.8388 47.4402 16.8876 47.4816 16.9291C47.5231 16.9707 47.5747 17.0041 47.6328 17.0271C47.6909 17.05 47.7541 17.0619 47.8181 17.062H50.1097C50.2857 17.0621 50.4559 17.0085 50.5897 16.9109C50.7234 16.8133 50.8119 16.6781 50.8391 16.5298L52.2141 9.1012C52.2242 9.0474 52.2205 8.99237 52.2033 8.93991C52.186 8.88744 52.1556 8.8388 52.1142 8.79733C52.0728 8.75587 52.0213 8.72257 51.9633 8.69975C51.9053 8.67692 51.8422 8.66511 51.7783 8.66512ZM48.2322 12.8894C47.9867 14.1294 46.8331 14.9618 45.3618 14.9618C44.6231 14.9618 44.0327 14.7596 43.6536 14.3766C43.2776 13.9962 43.1347 13.4547 43.2543 12.8516C43.4835 11.6223 44.6565 10.7627 46.1052 10.7627C46.8277 10.7627 47.4149 10.9675 47.8018 11.3538C48.1894 11.7442 48.3432 12.289 48.2322 12.8894ZM65.3275 8.66512H62.771C62.6504 8.66529 62.5317 8.69054 62.4252 8.7387C62.3186 8.78686 62.2275 8.85647 62.1596 8.94148L58.6337 13.3725L57.1391 9.11446C57.0932 8.98459 56.9995 8.87077 56.8719 8.78984C56.7444 8.70892 56.5896 8.66519 56.4306 8.66512H53.9184C53.8479 8.66496 53.7784 8.67918 53.7156 8.70658C53.6528 8.73398 53.5986 8.77378 53.5575 8.82266C53.5164 8.87154 53.4895 8.92809 53.4792 8.98761C53.4689 9.04713 53.4754 9.10788 53.4982 9.16483L56.3141 16.215L53.6667 19.4034C53.6197 19.46 53.5918 19.5265 53.5861 19.5956C53.5804 19.6648 53.5971 19.7339 53.6344 19.7955C53.6717 19.8571 53.7281 19.9088 53.7976 19.9448C53.867 19.9809 53.9467 19.9999 54.0279 19.9999H56.5813C56.7005 20 56.818 19.9755 56.9237 19.9284C57.0294 19.8813 57.1201 19.8131 57.188 19.7295L65.691 9.25827C65.7371 9.20162 65.7641 9.13529 65.7692 9.06646C65.7742 8.99764 65.7571 8.92895 65.7196 8.86784C65.6822 8.80673 65.6258 8.75553 65.5567 8.7198C65.4876 8.68406 65.4083 8.66516 65.3275 8.66512Z" fill="#022273"/>
<path d="M73.7879 4.47332H68.4746C68.2988 4.47338 68.1289 4.52695 67.9953 4.62439C67.8617 4.72182 67.7733 4.85673 67.7459 5.00483L65.5972 16.6272C65.5872 16.6811 65.5911 16.7361 65.6084 16.7886C65.6257 16.841 65.6562 16.8897 65.6977 16.9311C65.7392 16.9726 65.7907 17.0059 65.8488 17.0287C65.9068 17.0515 65.9699 17.0633 66.0338 17.0633H68.7604C68.8834 17.0632 69.0023 17.0256 69.0957 16.9573C69.1892 16.889 69.251 16.7945 69.27 16.6909L69.8798 13.3964C69.907 13.2482 69.9954 13.1131 70.129 13.0155C70.2626 12.918 70.4326 12.8643 70.6085 12.8642H72.2895C75.7898 12.8642 77.8087 11.4195 78.337 8.55644C78.5754 7.30386 78.3463 6.3197 77.6588 5.63046C76.9045 4.87361 75.5661 4.47332 73.7879 4.47332ZM74.4009 8.71814C74.1111 10.3445 72.6546 10.3445 71.2454 10.3445H70.4446L71.0077 7.30718C71.0239 7.21831 71.0768 7.13732 71.1569 7.07885C71.2369 7.02037 71.3389 6.98829 71.4443 6.9884H71.8117C72.7703 6.9884 73.6761 6.9884 74.1437 7.45497C74.4226 7.73332 74.5073 8.14686 74.4009 8.71814ZM89.6675 8.66579H87.125C87.0196 8.66554 86.9175 8.69757 86.8374 8.75607C86.7573 8.81457 86.7045 8.89564 86.6885 8.98456L86.5758 9.59163L86.3972 9.3716C85.8464 8.68965 84.619 8.46166 83.3932 8.46166C80.582 8.46166 78.1816 10.2782 77.714 12.8264C77.4716 14.0976 77.8157 15.313 78.6609 16.1607C79.4377 16.94 80.5454 17.2648 81.8652 17.2648C84.1304 17.2648 85.3865 16.0222 85.3865 16.0222L85.2731 16.6252C85.263 16.6793 85.2667 16.7345 85.2841 16.7872C85.3015 16.8399 85.3321 16.8887 85.3737 16.9303C85.4154 16.9719 85.4672 17.0053 85.5254 17.0281C85.5837 17.051 85.6471 17.0628 85.7112 17.0627H88.0021C88.1779 17.0626 88.348 17.0089 88.4815 16.9113C88.6151 16.8138 88.7035 16.6787 88.7307 16.5305L90.1064 9.10187C90.1162 9.0479 90.1121 8.99277 90.0946 8.94026C90.077 8.88775 90.0463 8.83911 90.0046 8.79768C89.9629 8.75625 89.9112 8.72301 89.853 8.70025C89.7948 8.67748 89.7316 8.66572 89.6675 8.66579ZM86.1214 12.8901C85.8775 14.13 84.7224 14.9624 83.2511 14.9624C82.5139 14.9624 81.9219 14.7603 81.5429 14.3772C81.1669 13.9968 81.0255 13.4554 81.1436 12.8523C81.3743 11.6229 82.5457 10.7633 83.9945 10.7633C84.7169 10.7633 85.3042 10.9681 85.691 11.3545C86.0802 11.7449 86.234 12.2896 86.1214 12.8901ZM92.6668 4.79209L90.4863 16.6272C90.4763 16.6811 90.4801 16.7361 90.4975 16.7886C90.5148 16.841 90.5453 16.8897 90.5868 16.9311C90.6283 16.9726 90.6798 17.0059 90.7378 17.0287C90.7958 17.0515 90.859 17.0633 90.9229 17.0633H93.115C93.4794 17.0633 93.7885 16.838 93.8445 16.5311L95.9947 4.9094C96.0047 4.85553 96.0009 4.80045 95.9835 4.74796C95.9662 4.69546 95.9357 4.64679 95.8942 4.60529C95.8528 4.56379 95.8012 4.53045 95.7432 4.50755C95.6852 4.48466 95.622 4.47275 95.5581 4.47266H93.1034C92.998 4.47297 92.8962 4.5053 92.8162 4.56383C92.7362 4.62236 92.6832 4.70328 92.6668 4.79209Z" fill="#167FC4"/>
<path d="M5.64336 19.3215L6.04964 17.1199L5.14465 17.102H0.823242L3.8264 0.856327C3.83534 0.806689 3.86489 0.761445 3.90966 0.728842C3.95444 0.69624 4.01145 0.678449 4.07032 0.678714H11.3568C13.7758 0.678714 15.4452 1.10817 16.3168 1.95581C16.7254 2.35345 16.9856 2.76898 17.1114 3.22627C17.2435 3.70609 17.2458 4.27936 17.1169 4.97855L17.1076 5.02958V5.47759L17.5162 5.67508C17.8281 5.80991 18.1085 5.99229 18.3435 6.21322C18.693 6.55321 18.9191 6.98531 19.0146 7.49761C19.1133 8.02448 19.0807 8.65143 18.9191 9.36122C18.7327 10.1777 18.4312 10.8888 18.0242 11.4707C17.6651 11.992 17.1822 12.4435 16.6065 12.7962C16.0659 13.1236 15.4234 13.3721 14.6971 13.5312C13.9933 13.6876 13.1909 13.7664 12.3107 13.7664H11.7437C11.3382 13.7664 10.9443 13.891 10.6352 14.1144C10.3264 14.3401 10.1216 14.652 10.0572 14.9945L10.0145 15.1926L9.29671 19.073L9.26408 19.2154C9.25554 19.2605 9.24078 19.283 9.21903 19.2983C9.19796 19.313 9.17167 19.3212 9.14446 19.3215H5.64336Z" fill="#022273"/>
<path d="M17.9029 5.08179C17.8812 5.20042 17.8563 5.3217 17.8284 5.44629C16.8674 9.65533 13.58 11.1094 9.3813 11.1094H7.24351C6.73004 11.1094 6.29736 11.4275 6.21735 11.8596L5.12282 17.7818L4.81287 19.4605C4.80052 19.5271 4.80524 19.5952 4.82669 19.6601C4.84814 19.7249 4.88581 19.7851 4.93712 19.8364C4.98843 19.8876 5.05216 19.9288 5.12391 19.9571C5.19566 19.9853 5.27373 19.9999 5.35275 20H9.14437C9.59337 20 9.97479 19.7216 10.0455 19.3439L10.0828 19.1795L10.7967 15.3144L10.8425 15.1024C10.9124 14.7233 11.2946 14.4449 11.7436 14.4449H12.3107C15.9842 14.4449 18.86 13.1725 19.7005 9.49031C20.0516 7.9521 19.8698 6.66771 18.9408 5.7644C18.6463 5.48497 18.2946 5.25365 17.9029 5.08179Z" fill="#167FC4"/>
<path d="M16.8965 4.73907C16.5896 4.66335 16.2775 4.60425 15.962 4.56212C15.3384 4.48037 14.7082 4.44114 14.0774 4.44482H8.36628C8.14893 4.44467 7.9387 4.51087 7.77357 4.63145C7.60845 4.75202 7.49934 4.91902 7.46596 5.10225L6.25102 11.6673L6.21606 11.8588C6.25391 11.6498 6.37819 11.4593 6.56641 11.3217C6.75463 11.1841 6.99436 11.1085 7.24223 11.1086H9.38002C13.5787 11.1086 16.8662 9.65392 17.8271 5.44555C17.8558 5.32095 17.8799 5.19967 17.9016 5.08104C17.6481 4.9676 17.3838 4.8725 17.1116 4.79673C17.0403 4.77653 16.9685 4.75731 16.8965 4.73907Z" fill="#022273"/>
<path d="M7.4682 5.1024C7.5013 4.91912 7.61035 4.75205 7.77556 4.63153C7.94077 4.51102 8.15116 4.44506 8.36853 4.44563H14.0796C14.7563 4.44563 15.3878 4.48341 15.9642 4.56294C16.3542 4.61524 16.7389 4.69346 17.1147 4.79688C17.3982 4.87707 17.6615 4.97185 17.9047 5.0812C18.1905 3.52576 17.9023 2.4667 16.9166 1.50772C15.8298 0.451986 13.8684 0 11.3585 0H4.07198C3.55928 0 3.12194 0.318113 3.0427 0.75088L0.00769798 17.1635C-0.00643856 17.2397 -0.00106009 17.3176 0.0234634 17.3919C0.0479869 17.4662 0.0910735 17.535 0.149759 17.5937C0.208445 17.6524 0.281337 17.6996 0.363422 17.7319C0.445506 17.7643 0.534835 17.7811 0.625264 17.7812H5.12378L6.25327 11.6675L7.4682 5.1024Z" fill="#022273"/>
</svg>
