<svg width="20" height="20" viewBox="0 0 20 20" fill="none" xmlns="http://www.w3.org/2000/svg">
<path fill-rule="evenodd" clip-rule="evenodd" d="M9.16672 2.65814C9.22428 2.4756 9.33854 2.31617 9.49289 2.203C9.64724 2.08983 9.83366 2.02881 10.0251 2.02881C10.2164 2.02881 10.4029 2.08983 10.5572 2.203C10.7116 2.31617 10.8258 2.4756 10.8834 2.65814L12.4334 7.4248H17.4334C17.6316 7.41731 17.8269 7.47492 17.9893 7.58883C18.1517 7.70275 18.2724 7.8667 18.3328 8.05565C18.3933 8.24459 18.3902 8.44814 18.3241 8.63518C18.258 8.82222 18.1325 8.98248 17.9667 9.09147L13.9084 12.0331L15.4584 16.8081C15.5197 16.99 15.5212 17.1867 15.4628 17.3696C15.4044 17.5524 15.289 17.7118 15.1336 17.8244C14.9781 17.937 14.7908 17.997 14.5988 17.9955C14.4069 17.9941 14.2205 17.9314 14.0667 17.8165L10.0001 14.8415L5.94172 17.7915C5.78798 17.9064 5.60152 17.9691 5.40959 17.9705C5.21765 17.972 5.03029 17.912 4.87486 17.7994C4.71943 17.6868 4.60408 17.5274 4.54564 17.3446C4.48721 17.1617 4.48875 16.965 4.55005 16.7831L6.10005 12.0081L2.04172 9.06647C1.87595 8.95748 1.75043 8.79722 1.68432 8.61018C1.61821 8.42314 1.61515 8.21959 1.67562 8.03065C1.73608 7.8417 1.85673 7.67775 2.01915 7.56383C2.18157 7.44992 2.37681 7.39231 2.57505 7.3998H7.57505L9.16672 2.65814Z" fill="#FBAD39"/>
</svg>
