<svg width="20" height="18" viewBox="0 0 20 18" fill="none" xmlns="http://www.w3.org/2000/svg">
<path fill-rule="evenodd" clip-rule="evenodd" d="M9.16673 1.65814C9.2243 1.4756 9.33855 1.31617 9.49291 1.203C9.64726 1.08983 9.83367 1.02881 10.0251 1.02881C10.2165 1.02881 10.4029 1.08983 10.5572 1.203C10.7116 1.31617 10.8258 1.4756 10.8834 1.65814L12.4334 6.4248H17.4334C17.6316 6.41731 17.8269 6.47492 17.9893 6.58883C18.1517 6.70275 18.2724 6.8667 18.3328 7.05565C18.3933 7.24459 18.3902 7.44814 18.3241 7.63518C18.258 7.82222 18.1325 7.98248 17.9667 8.09147L13.9084 11.0331L15.4584 15.8081C15.5197 15.99 15.5212 16.1867 15.4628 16.3696C15.4044 16.5524 15.289 16.7118 15.1336 16.8244C14.9782 16.937 14.7908 16.997 14.5989 16.9955C14.4069 16.9941 14.2205 16.9314 14.0667 16.8165L10.0001 13.8415L5.94173 16.7915C5.78799 16.9064 5.60154 16.9691 5.4096 16.9705C5.21767 16.972 5.03031 16.912 4.87488 16.7994C4.71945 16.6868 4.60409 16.5274 4.54566 16.3446C4.48722 16.1617 4.48877 15.965 4.55007 15.7831L6.10007 11.0081L2.04173 8.06647C1.87597 7.95748 1.75044 7.79722 1.68433 7.61018C1.61823 7.42314 1.61517 7.21959 1.67563 7.03065C1.73609 6.8417 1.85675 6.67775 2.01917 6.56383C2.18158 6.44992 2.37683 6.39231 2.57507 6.3998H7.57507L9.16673 1.65814Z" stroke="#C3D4E9" stroke-width="1.5" stroke-linecap="round" stroke-linejoin="round"/>
</svg>
